<svg id="Layer_1" data-name="Layer 1" xmlns="http://www.w3.org/2000/svg" viewBox="0 0 791.51 861.02"><defs><style>.cls-1{fill:#fff;}</style></defs><title>Artboard 1 copy 7</title><path class="cls-1" d="M440,218.78l1.8-43a6.86,6.86,0,0,0-10.59-6l-20.83,13.54a1.69,1.69,0,0,1-2.59-1.19L391,55.83a19.26,19.26,0,0,1,6.27-16.9L406.12,31c39.24-35,96.88-41.26,142-14.2.82.49,1.64,1,2.45,1.51l10.74,6.79,34.56,171.69Z"/><polygon class="cls-1" points="494.51 345.06 412.54 426.12 147.74 517.21 110.24 461.77 424.27 240.06 494.51 345.06"/><path class="cls-1" d="M127.12,522.43l-19.51,8.25-.34.13-3.66,1.41-.23.07-3.59,1.09a4.43,4.43,0,0,1-.49.13l-4.22.87c-.38.08-2.53.36-2.92.36l-5.76.13-68.91,1,16.89-35.91,58.14-28.67Z"/><polygon class="cls-1" points="491.05 576.89 0 576.89 12.3 548.02 474.75 548.02 491.05 576.89"/><polygon class="cls-1" points="791.51 510.58 737.91 576.89 737.87 576.94 611.56 576.89 513.99 576.85 433.24 433.79 520.17 347.75 520.32 347.65 446.95 238 627.18 212.56 755.37 308.1 791.51 510.58"/><polygon class="cls-1" points="751.06 818.86 701.63 861.02 594.12 861.02 732.9 741.34 751.06 818.86"/><polygon class="cls-1" points="770.53 682.47 563.5 861.02 310.37 861 505.7 596.89 742.1 596.89 770.53 682.47"/><polygon class="cls-1" points="737.91 576.89 737.87 576.94 611.56 576.89 737.91 576.89"/></svg>