<svg id="Lag_1" data-name="Lag 1" xmlns="http://www.w3.org/2000/svg" viewBox="0 0 1301 576"><defs><style>.cls-1{fill:#033b56;}.cls-2{fill:#fff;}.cls-3{fill:#ec830a;}</style></defs><title>Tegnebræt 1</title><rect class="cls-1" width="1301" height="533"/><path class="cls-2" d="M555,293.85V282.64h54.6V294.2c0,8.05,2.1,10.15,7.35,10.15h36c5.6,0,7.35-2.1,7.35-14.35s-1.75-13.66-8.4-14.71l-52.85-9.1c-29.75-4.9-41.65-14-41.65-52.5,0-42.35,14.35-56.7,45.15-56.7H666c30.8,0,45.15,14.35,45.15,51.45v8.4H656.5v-9.45c0-7.7-2.1-9.45-7.35-9.45H619.4c-5.25,0-7.35,1.75-7.35,12.6,0,11.9,2.1,13.65,8.75,14.7L673.65,234c29.75,5.25,41.65,14,41.65,53.9C715.3,331.65,701,346,670.15,346h-70C569.35,346,555,331.65,555,293.85Z"/><rect class="cls-3" x="-0.04" y="533" width="1301.04" height="43"/><path class="cls-2" d="M66,66H220.4c37.2,0,55.2,17.6,55.2,55.2v34.4c0,24-6.4,39.6-28.8,47.2,24.4,5.6,32,25.2,32,47.2v40.8c0,37.2-18,55.2-55.2,55.2H66ZM201.6,176.8c5.6,0,7.6-2,7.6-7.6V128.8c0-6-2-7.6-7.6-7.6H132.4v55.6Zm3.2,114c5.6,0,7.6-2,7.6-7.6V236.4c0-6-2-7.6-7.6-7.6H132.4v62Z"/><path class="cls-2" d="M388.4,124H315.6V66H528v58H454.8V346H388.4Z"/><path class="cls-3" d="M570.75,97.88H557.3V66h33V87.89c0,7.69-2.31,12.68-9.6,20.36L566.14,124H555Z"/><path class="cls-2" d="M66,379H89.26l21.62,49,21.5-49h23.13v88H135.14V413.57l-17.72,42.24H103.59L85.86,413.57V467H66Z"/><path class="cls-2" d="M220.12,448.39h-28l-5,18.61H165.44l26.65-88h28.79l26.78,88H225.15Zm-4.77-17.72-9.18-34.45-9.3,34.45Z"/><path class="cls-2" d="M254.7,449.65V438.09h20.61V447c0,1.76.63,2.39,2.39,2.39h19.86c1.76,0,2.39-.63,2.39-2.39v-9.18c0-2-.88-2.64-3.52-3.26l-23.38-5.66c-11.69-2.89-18.1-6.16-18.1-18.1V396.35C255,384.53,260.6,379,272.3,379H302c11.7,0,17.35,5.53,17.35,17.35v10.56H298.7V399c0-1.89-.63-2.39-2.39-2.39H278.2c-1.76,0-2.38.5-2.38,2.39v8.17c0,2,.75,2.64,3.52,3.27l23.38,5.66c11.69,2.89,18.1,6.16,18.1,18.1v15.46c0,11.69-5.66,17.35-17.35,17.35H272C260.35,467,254.7,461.34,254.7,449.65Z"/><path class="cls-2" d="M387,467,369.1,430.79l-12.83,16.85V467H335.78V379h20.49v40.61L384.68,379h23.51L382.3,413.19,409.58,467Z"/><path class="cls-2" d="M419.76,379h20.87v88H419.76Z"/><path class="cls-2" d="M458.23,379h21.24l31,51.67V379h20.24v88H511.4l-32.93-54.56V467H458.23Z"/><path class="cls-2" d="M548.36,379H609v18.1H569.23v17.1H601v17.85H569.23V467H548.36Z"/><path class="cls-2" d="M661,448.39H633l-5,18.61H606.32L633,379h28.79l26.77,88H666Zm-4.78-17.72-9.17-34.45-9.31,34.45Z"/><path class="cls-2" d="M699.09,379h48.53c11.69,0,17.35,5.53,17.35,17.35v10.81c0,7.54-2,12.45-9.05,14.83,7.66,1.76,10.05,7.92,10.05,14.84v12.82c0,11.69-5.65,17.35-17.35,17.35H699.09Zm42.62,34.82c1.76,0,2.39-.63,2.39-2.39V398.74c0-1.89-.63-2.39-2.39-2.39H720v17.47Zm1,35.83c1.76,0,2.38-.63,2.38-2.39V432.55c0-1.88-.62-2.38-2.38-2.38H720v19.48Z"/><path class="cls-2" d="M850,467H828.2l-14.71-30.3H801.3V467H780.43V379h49c11.69,0,17.35,5.53,17.35,17.35v22c0,9.93-3.9,15.34-12.07,16.84Zm-26.4-47.65c1.76,0,2.39-.5,2.39-2.38V399.11c0-1.88-.63-2.38-2.39-2.38H801.3v22.62Z"/><path class="cls-2" d="M863.15,379H884v88H863.15Z"/><path class="cls-2" d="M952.78,467l-17.85-36.21-12.82,16.85V467H901.62V379h20.49v40.61L950.52,379H974l-25.9,34.19L975.41,467Z"/><path class="cls-2" d="M1070.8,167.89l.84-20a3.2,3.2,0,0,0-4.93-2.8l-9.7,6.31a.79.79,0,0,1-1.09-.24.82.82,0,0,1-.12-.32L1048,92a9,9,0,0,1,2.92-7.87l4.12-3.69c18.28-16.3,45.12-19.22,66.14-6.61.38.22.76.46,1.14.7l5,3.16,16.1,80Z"/><polygon class="cls-2" points="1096.19 226.7 1058.01 264.46 934.69 306.88 917.23 281.06 1063.48 177.8 1096.19 226.7"/><path class="cls-2" d="M925.09,309.31,916,313.15l-.16.06-1.7.66-.11,0-1.67.51-.23.06-2,.41c-.17,0-1.17.16-1.36.16l-2.68.06-32.09.47,7.87-16.72L909,285.49Z"/><polygon class="cls-2" points="1094.58 334.67 865.88 334.67 871.61 321.23 1086.99 321.23 1094.58 334.67"/><polygon class="cls-2" points="1234.51 303.79 1209.55 334.67 1209.53 334.7 1150.7 334.67 1105.26 334.65 1067.65 268.03 1108.14 227.96 1108.21 227.91 1074.04 176.84 1157.98 165 1217.68 209.49 1234.51 303.79"/><polygon class="cls-2" points="1215.67 447.37 1192.65 467 1142.58 467 1207.21 411.26 1215.67 447.37"/><polygon class="cls-2" points="1224.74 383.85 1128.32 467 1010.43 466.99 1101.4 343.99 1211.5 343.99 1224.74 383.85"/><polygon class="cls-2" points="1209.55 334.67 1209.53 334.7 1150.7 334.67 1209.55 334.67"/></svg>